<svg id="Layer_1" data-name="Layer 1" xmlns="http://www.w3.org/2000/svg" xmlns:xlink="http://www.w3.org/1999/xlink" viewBox="0 0 90 90"><defs><style>.cls-1{fill:url(#linear-gradient);}.cls-2{fill:url(#linear-gradient-2);}.cls-3{fill:url(#linear-gradient-3);}.cls-4{fill:url(#linear-gradient-4);}.cls-5{fill:url(#linear-gradient-5);}.cls-6{fill:#6a0d69;}.cls-7{fill:#ba8abe;}.cls-8{fill:#a967aa;}.cls-9{fill:#973f98;}.cls-10{fill:url(#linear-gradient-6);}</style><linearGradient id="linear-gradient" x1="11.85" y1="66.44" x2="83.69" y2="20.07" gradientUnits="userSpaceOnUse"><stop offset="0" stop-color="#e1c5df"/><stop offset="0.99" stop-color="#6a0d69"/></linearGradient><linearGradient id="linear-gradient-2" x1="1.59" y1="45" x2="88.41" y2="45" xlink:href="#linear-gradient"/><linearGradient id="linear-gradient-3" x1="31.54" y1="45" x2="58.46" y2="45" xlink:href="#linear-gradient"/><linearGradient id="linear-gradient-4" x1="36.08" y1="49.41" x2="56.03" y2="39.55" xlink:href="#linear-gradient"/><linearGradient id="linear-gradient-5" x1="-8177.68" y1="-8154.29" x2="-8114.47" y2="-8154.29" gradientTransform="translate(-2508.88 2625.56) rotate(90) scale(0.32)" xlink:href="#linear-gradient"/><linearGradient id="linear-gradient-6" x1="-8177.54" y1="-8154.29" x2="-8114.32" y2="-8154.29" gradientTransform="matrix(0, 0.32, 0.32, 0, 2598.88, 2625.56)" xlink:href="#linear-gradient"/></defs><ellipse class="cls-1" cx="45" cy="45.05" rx="43.41" ry="25.85"/><ellipse class="cls-2" cx="45" cy="45" rx="43.41" ry="23.13"/><circle class="cls-3" cx="45" cy="45" r="13.46"/><circle class="cls-4" cx="45" cy="45" r="11.1"/><g id="Arrow_11" data-name="Arrow 11"><polygon class="cls-5" points="63.63 50.62 63.63 39.33 74.95 39.33 74.95 34.96 84.97 44.98 75.02 54.99 75.02 50.72 63.64 50.72 63.63 50.62"/><polygon class="cls-6" points="63.63 39.33 74.95 39.33 75.84 40.22 64.45 40.22 63.63 39.33"/><polyline class="cls-7" points="84.97 44.98 83.84 44.98 75.91 52.97 75.02 54.99 84.97 44.98"/><polygon class="cls-8" points="84.97 44.98 74.95 34.96 75.84 36.97 83.85 44.98 84.97 44.98"/><polygon class="cls-9" points="74.95 34.98 74.95 39.33 75.84 40.23 75.84 36.98 74.95 34.98"/><polygon class="cls-7" points="63.62 50.73 75.02 50.73 75.91 49.84 64.44 49.84 63.62 50.73"/><polygon class="cls-9" points="75.02 54.98 75.02 50.73 75.91 49.83 75.91 52.97 75.02 54.98"/><polygon class="cls-8" points="63.63 50.71 63.63 39.33 64.45 40.22 64.45 49.84 63.63 50.71"/></g><g id="Arrow_11-2" data-name="Arrow 11"><polygon class="cls-10" points="26.36 50.66 26.36 39.38 15.05 39.38 15.05 35.01 5.03 45.02 14.98 55.04 14.98 50.77 26.36 50.77 26.36 50.66"/><polygon class="cls-6" points="26.37 39.38 15.05 39.38 14.16 40.27 25.55 40.27 26.37 39.38"/><polyline class="cls-7" points="5.03 45.02 6.16 45.03 14.09 53.02 14.98 55.04 5.03 45.02"/><polygon class="cls-8" points="5.03 45.02 15.05 35.01 14.16 37.02 6.15 45.03 5.03 45.02"/><polygon class="cls-9" points="15.05 35.02 15.05 39.38 14.16 40.27 14.16 37.03 15.05 35.02"/><polygon class="cls-7" points="26.38 50.77 14.98 50.77 14.09 49.88 25.56 49.88 26.38 50.77"/><polygon class="cls-9" points="14.98 55.03 14.98 50.77 14.09 49.88 14.09 53.02 14.98 55.03"/><polygon class="cls-8" points="26.37 50.76 26.37 39.38 25.55 40.27 25.55 49.89 26.37 50.76"/></g></svg>