<svg xmlns="http://www.w3.org/2000/svg" xmlns:xlink="http://www.w3.org/1999/xlink" viewBox="0 0 60 180"><defs><style>.cls-1{isolation:isolate;}.cls-2{fill:url(#linear-gradient);}.cls-3{fill:url(#linear-gradient-2);}.cls-4{opacity:0.36;mix-blend-mode:multiply;}.cls-5{fill:#ff4e45;}.cls-6{fill:#f7931e;}</style><linearGradient id="linear-gradient" x1="-9.25" y1="98.26" x2="79.36" y2="79.62" gradientUnits="userSpaceOnUse"><stop offset="0" stop-color="#e1c5df"/><stop offset="0.99" stop-color="#6a0d69"/></linearGradient><linearGradient id="linear-gradient-2" x1="-13.34" y1="90.33" x2="79.87" y2="89.62" xlink:href="#linear-gradient"/></defs><g class="cls-1"><g id="Layer_1" data-name="Layer 1"><rect class="cls-2" x="2.14" width="55.73" height="180" rx="18.95"/><rect class="cls-3" x="6.95" y="5.16" width="46.11" height="169.67" rx="18.95"/><g class="cls-4"><path class="cls-5" d="M24.6,46.28V23.94H36.45a1.2,1.2,0,0,1,.91.45,1.56,1.56,0,0,1,.39,1.06,1.61,1.61,0,0,1-.39,1.08,1.14,1.14,0,0,1-.91.46H27.22v4.74h6.62a1.15,1.15,0,0,1,.92.44,1.68,1.68,0,0,1,0,2.13,1.15,1.15,0,0,1-.92.44H27.22V46.28a1.55,1.55,0,0,1-.39,1.07,1.18,1.18,0,0,1-.92.44,1.21,1.21,0,0,1-.93-.44A1.59,1.59,0,0,1,24.6,46.28Z"/><path class="cls-5" d="M25.88,60.7H36.45a1.22,1.22,0,0,1,.91.44,1.58,1.58,0,0,1,.39,1.06,1.64,1.64,0,0,1-.39,1.09,1.17,1.17,0,0,1-.91.46h-4V81.53h4a1.18,1.18,0,0,1,.92.44,1.68,1.68,0,0,1,0,2.14,1.17,1.17,0,0,1-.91.44H25.88a1.21,1.21,0,0,1-.93-.44A1.59,1.59,0,0,1,24.57,83,1.61,1.61,0,0,1,25,82a1.21,1.21,0,0,1,.93-.44h4V63.75h-4A1.19,1.19,0,0,1,25,63.3a1.6,1.6,0,0,1-.38-1.06,1.67,1.67,0,0,1,.38-1.1A1.21,1.21,0,0,1,25.88,60.7Z"/><path class="cls-5" d="M24.64,119.8V97.45h9.23a3.55,3.55,0,0,1,2.76,1.35A4.77,4.77,0,0,1,37.78,102v1.72A4.77,4.77,0,0,1,36.63,107a3.5,3.5,0,0,1-2.76,1.33H32.2l5.34,10.59a2,2,0,0,1,.24.94,1.52,1.52,0,0,1-.4,1.05,1.24,1.24,0,0,1-.92.44,1.27,1.27,0,0,1-1.18-.81l-6.12-12.21H27.28V119.8a1.53,1.53,0,0,1-.4,1.07,1.23,1.23,0,0,1-.94.44,1.18,1.18,0,0,1-.92-.44A1.56,1.56,0,0,1,24.64,119.8Zm2.61-14.52h6.62a1.18,1.18,0,0,0,.92-.44,1.56,1.56,0,0,0,.38-1.07V102a1.56,1.56,0,0,0-.38-1.07,1.18,1.18,0,0,0-.92-.44H27.25Z"/><path class="cls-5" d="M36.45,137.26H27.22v7.34h4a1.17,1.17,0,0,1,.92.45,1.56,1.56,0,0,1,.39,1.06,1.67,1.67,0,0,1-.38,1.1,1.18,1.18,0,0,1-.93.44h-4v7.4h9.26a1.21,1.21,0,0,1,.92.44,1.59,1.59,0,0,1,.38,1.07,1.54,1.54,0,0,1-.39,1.06,1.22,1.22,0,0,1-.94.44H24.6V134.21H36.45a1.21,1.21,0,0,1,.94.46,1.59,1.59,0,0,1,.39,1.08,1.56,1.56,0,0,1-.39,1.06A1.23,1.23,0,0,1,36.45,137.26Z"/></g><path class="cls-6" d="M23.6,45.28V22.94H35.45a1.2,1.2,0,0,1,.91.45,1.56,1.56,0,0,1,.39,1.06,1.61,1.61,0,0,1-.39,1.08,1.14,1.14,0,0,1-.91.46H26.22v4.74h6.62a1.15,1.15,0,0,1,.92.44,1.68,1.68,0,0,1,0,2.13,1.15,1.15,0,0,1-.92.44H26.22V45.28a1.55,1.55,0,0,1-.39,1.07,1.18,1.18,0,0,1-.92.44,1.21,1.21,0,0,1-.93-.44A1.59,1.59,0,0,1,23.6,45.28Z"/><path class="cls-6" d="M24.88,59.7H35.45a1.22,1.22,0,0,1,.91.44,1.58,1.58,0,0,1,.39,1.06,1.64,1.64,0,0,1-.39,1.09,1.17,1.17,0,0,1-.91.46h-4V80.53h4a1.18,1.18,0,0,1,.92.44,1.68,1.68,0,0,1,0,2.14,1.17,1.17,0,0,1-.91.44H24.88a1.21,1.21,0,0,1-.93-.44A1.59,1.59,0,0,1,23.57,82,1.61,1.61,0,0,1,24,81a1.21,1.21,0,0,1,.93-.44h4V62.75h-4A1.19,1.19,0,0,1,24,62.3a1.6,1.6,0,0,1-.38-1.06,1.67,1.67,0,0,1,.38-1.1A1.21,1.21,0,0,1,24.88,59.7Z"/><path class="cls-6" d="M23.64,118.8V96.45h9.23a3.55,3.55,0,0,1,2.76,1.35A4.77,4.77,0,0,1,36.78,101v1.72A4.77,4.77,0,0,1,35.63,106a3.5,3.5,0,0,1-2.76,1.33H31.2l5.34,10.59a2,2,0,0,1,.24.94,1.52,1.52,0,0,1-.4,1.05,1.24,1.24,0,0,1-.92.44,1.27,1.27,0,0,1-1.18-.81l-6.12-12.21H26.28V118.8a1.53,1.53,0,0,1-.4,1.07,1.23,1.23,0,0,1-.94.44,1.18,1.18,0,0,1-.92-.44A1.56,1.56,0,0,1,23.64,118.8Zm2.61-14.52h6.62a1.18,1.18,0,0,0,.92-.44,1.56,1.56,0,0,0,.38-1.07V101a1.56,1.56,0,0,0-.38-1.07,1.18,1.18,0,0,0-.92-.44H26.25Z"/><path class="cls-6" d="M35.45,136.26H26.22v7.34h4a1.17,1.17,0,0,1,.92.45,1.56,1.56,0,0,1,.39,1.06,1.67,1.67,0,0,1-.38,1.1,1.18,1.18,0,0,1-.93.44h-4v7.4h9.26a1.21,1.21,0,0,1,.92.44,1.59,1.59,0,0,1,.38,1.07,1.54,1.54,0,0,1-.39,1.06,1.22,1.22,0,0,1-.94.44H23.6V133.21H35.45a1.21,1.21,0,0,1,.94.46,1.59,1.59,0,0,1,.39,1.08,1.56,1.56,0,0,1-.39,1.06A1.23,1.23,0,0,1,35.45,136.26Z"/></g></g></svg>